<?xml version="1.0" encoding="utf-8"?>
<!-- Generator: Adobe Illustrator 22.0.0, SVG Export Plug-In . SVG Version: 6.00 Build 0)  -->
<svg version="1.1" id="Layer_1" xmlns="http://www.w3.org/2000/svg" xmlns:xlink="http://www.w3.org/1999/xlink" x="0px" y="0px"
	 viewBox="0 0 64 80" style="enable-background:new 0 0 64 80;" xml:space="preserve">
<g>
	<path d="M37.8,12.3c-3.2-3.2-8.4-3.2-11.7,0c0,0,0,0,0,0L2.9,35.6c-1.2,1.2-1.2,3.2,0,4.4c1.2,1.2,3.2,1.2,4.4,0L9,38.3v30.6
		c0,0.6,0.4,1,1,1h44c0.6,0,1-0.4,1-1V38.3l1.7,1.7c1.2,1.2,3.2,1.2,4.4,0c1.2-1.2,1.2-3.2,0-4.4L37.8,12.3z M53,67.9H11V36.3l20-20
		c0.6-0.5,1.4-0.5,2,0l20,20V67.9z M58.9,38.9c-0.3,0-0.6-0.1-0.8-0.3L34.4,14.9c-1.3-1.3-3.5-1.3-4.8,0L5.9,38.6
		c-0.4,0.4-1.1,0.4-1.6,0c-0.4-0.4-0.4-1.1,0-1.6l0,0l23.3-23.3c2.4-2.4,6.4-2.4,8.8,0L59.7,37c0.4,0.4,0.4,1.1,0,1.6
		C59.5,38.8,59.2,38.9,58.9,38.9z"/>
	<path d="M40.5,51.9c-1.2-4.8-4.7-8-8.5-8s-7.2,3.3-8.5,8c-3.9,0.3-6.8,3.6-6.5,7.5c0.2,3.2,2.5,5.8,5.7,6.4
		c0.4,0.1,0.9,0.1,1.3,0.1c0.5,0,0.9,0,1.4-0.1c1.5-0.3,2.9-0.5,4.4-0.5h4.4c1.5,0,3,0.2,4.4,0.5c3.8,0.8,7.5-1.7,8.2-5.5
		c0.8-3.8-1.7-7.5-5.5-8.2C41.1,52,40.8,52,40.5,51.9L40.5,51.9z M45,59.5c-0.3,2.2-1.9,3.9-4,4.3c-0.6,0.1-1.3,0.1-1.9,0
		c-1.6-0.4-3.2-0.5-4.8-0.6h-4.4c-1.6,0-3.2,0.2-4.8,0.6c-0.6,0.1-1.3,0.1-1.9,0c-2.7-0.5-4.5-3.1-4-5.9c0.5-2.4,2.5-4.1,4.9-4.1
		c0.1,0,0.1,0,0.2,0c0.5,0,0.9-0.3,1-0.8c0.9-4.2,3.6-7.2,6.7-7.2s5.8,3,6.7,7.2c0.2,0.5,0.6,0.8,1.1,0.8c0,0,0.1,0,0.2,0
		c2.8,0,5,2.2,5,5C45,59.1,45,59.3,45,59.5z"/>
	<path d="M23.6,40.9c0.8,0.6,1.8,1,2.9,1c0.4,0,0.7,0,1.1-0.1c2.7-0.7,4.1-3.9,3.3-7.1c-0.4-1.5-1.2-2.7-2.4-3.7
		c-1.1-0.9-2.6-1.2-4-0.8c-2.7,0.7-4.1,3.9-3.3,7.1C21.5,38.7,22.4,40,23.6,40.9z M25,32.1c0.2-0.1,0.4-0.1,0.6-0.1
		c0.6,0,1.2,0.2,1.7,0.6c0.8,0.6,1.4,1.5,1.7,2.6c0.6,2.1-0.3,4.2-1.9,4.6c-0.8,0.2-1.6,0-2.3-0.5c-0.8-0.6-1.4-1.5-1.7-2.6
		C22.5,34.6,23.4,32.5,25,32.1z"/>
	<path d="M36.4,41.7c0.4,0.1,0.7,0.1,1.1,0.1c1,0,2-0.4,2.9-1c1.2-0.9,2-2.2,2.4-3.7c0.9-3.2-0.6-6.4-3.3-7.1c-1.4-0.3-2.8,0-4,0.8
		c-1.2,0.9-2,2.2-2.4,3.7C32.3,37.8,33.8,41,36.4,41.7z M35.1,35.2c0.3-1,0.8-1.9,1.7-2.6c0.5-0.4,1.1-0.6,1.7-0.6
		c0.2,0,0.4,0,0.6,0.1c1.6,0.4,2.4,2.5,1.9,4.6c-0.3,1-0.8,1.9-1.7,2.6c-0.6,0.5-1.5,0.7-2.3,0.5C35.4,39.4,34.5,37.3,35.1,35.2z"/>
	<path d="M41.7,42.4c-0.8,1.3-1.1,2.8-0.9,4.3c0.2,1.4,1,2.7,2.2,3.4c0.7,0.4,1.4,0.6,2.2,0.6c2.2-0.1,4.1-1.3,5.2-3.3
		c0.8-1.3,1.1-2.8,0.9-4.3c-0.2-1.4-1-2.7-2.2-3.4C46.6,38.4,43.3,39.6,41.7,42.4z M46.8,41.2c0.4,0,0.8,0.1,1.2,0.3
		c0.7,0.4,1.1,1.2,1.2,2c0.1,1-0.1,2.1-0.6,3c-1.1,1.9-3.2,2.8-4.6,2c-0.7-0.4-1.1-1.2-1.2-2c-0.1-1,0.1-2.1,0.6-3
		C44.1,42.1,45.4,41.3,46.8,41.2z"/>
	<path d="M21,50.1c1.2-0.7,2-2,2.2-3.4c0.2-1.5-0.1-3-0.9-4.3c-1.7-2.9-4.9-4.1-7.3-2.7c-1.2,0.7-2,2-2.2,3.4
		c-0.2,1.5,0.1,3,0.9,4.3c1,1.9,3,3.2,5.2,3.3C19.6,50.7,20.3,50.5,21,50.1z M15.4,46.4c-0.5-0.9-0.8-2-0.6-3c0.1-0.8,0.5-1.5,1.2-2
		c0.4-0.2,0.8-0.3,1.2-0.3c1.5,0.1,2.7,1,3.4,2.3c0.5,0.9,0.8,2,0.6,3c-0.1,0.8-0.5,1.5-1.2,2C18.6,49.2,16.5,48.3,15.4,46.4z"/>
</g>
</svg>
